# xmcd
#
# Track frame offsets:
#	150
#	18261
#	33007
#	44960
#	77755
#	96367
#	108738
#	133655
#	150526
#	161936
#
# Disc length: 2558 seconds
#
# Revision: 0
# Processed by: cddbd v1.4PL0 Copyright (c) Steve Scherf et al.
# Submitted via: EasyCDDAExtractor 5.0.4.1
#
DISCID=8109fc0a
DTITLE=Totta's Bluesband
DYEAR=1981
DGENRE=Blues
TTITLE0=We'll play the blues for you
TTITLE1=Last time
TTITLE2=Chicago bound
TTITLE3=Me and the devil blues
TTITLE4=How many more years
TTITLE5=Don't burn down the bridge
TTITLE6=Sittin' on top of the world
TTITLE7=One way out
TTITLE8=Just your fool
TTITLE9=Double trouble
EXTD=
EXTT0=
EXTT1=
EXTT2=
EXTT3=
EXTT4=
EXTT5=
EXTT6=
EXTT7=
EXTT8=
EXTT9=
PLAYORDER=
